<svg xmlns="http://www.w3.org/2000/svg" xmlns:xlink="http://www.w3.org/1999/xlink" width="187" height="189.763" viewBox="0 0 187 189.763"><defs><style>.a{fill:none;}.b{clip-path:url(#a);}.c{fill:#62786f;fill-rule:evenodd;}</style><clipPath id="a"><rect class="a" width="187" height="189.763" transform="translate(0 0)"/></clipPath></defs><g transform="translate(0 -0.002)"><g class="b" transform="translate(0 0.002)"><path class="c" d="M373.1,432.126l-65.143-7.5,31.924,38.735L355.6,449.008l-2.519,7.968,9.169,5.432-5.7-14.659L322.878,431.34l.116-.16,36.932,12.655m-22.659-24.466,17.556,1.729a41.257,41.257,0,1,0-24.594,46.714L319.1,454.264a25.015,25.015,0,1,1,16.738-37.6,26.362,26.362,0,0,1,1.428,2.707m-62.547-29.446A56.122,56.122,0,0,1,370.148,422.6l23.573,2.325L367.35,449.91l9.827,30.594-22.75-11.338c-.074.078-.152.152-.23.234l-39.731,39.743L274.719,469.4a56.368,56.368,0,0,1,0-79.477" transform="translate(-220.879 -319.38)"/><path class="c" d="M57.928,74.256c21.556-13.371,49.546-12.91,71.152,0V44.983c-17.132-20.305-55.457-19.343-71.152,0ZM41.181,22.22l-.318.041v.095Zm-.318,31.6a4.065,4.065,0,0,1-.259,6.86,5.928,5.928,0,0,1,1.761,1.325l1.4,13.219a8.342,8.342,0,0,1-10.442,0l1.4-13.214a5.857,5.857,0,0,1,1.751-1.33,4.077,4.077,0,0,1-.227-6.881v-4.7h0V24.315h0V20.229a2.3,2.3,0,0,1,2.015-2.288l18.519-2.345L93.505,0,187,39.707,135.294,53.115v-9l-.708-1.926a41.9,41.9,0,0,0-5.786-5.659c-9.819-7.951-23.03-11.754-36.018-11.626-13.005.131-25.934,4.218-35.155,11.992a39.825,39.825,0,0,0-5.245,5.35l-.666,1.868v9L40.863,50.3ZM0,39.707,31.636,26.274V47.909Z" transform="translate(0 -0.001)"/></g></g></svg>