<svg xmlns="http://www.w3.org/2000/svg" xmlns:xlink="http://www.w3.org/1999/xlink" width="35.696" height="27.474" viewBox="0 0 35.696 27.474"><defs><style>.a{fill:#395349;}.b{clip-path:url(#a);}</style><clipPath id="a"><rect class="a" width="35.696" height="27.474"/></clipPath></defs><g transform="translate(0 0)"><g class="b" transform="translate(0 0)"><path class="a" d="M5.346,10.62H20.118a.439.439,0,1,0,0-.877H5.346a.439.439,0,1,0,0,.877" transform="translate(-0.611 -1.212)"/><path class="a" d="M20.118,23.555H5.346a.438.438,0,1,0,0,.876H20.118a.438.438,0,1,0,0-.876" transform="translate(-0.611 -2.931)"/><path class="a" d="M34.895,1.005l-.027-.03A2.608,2.608,0,0,0,32.994.12,2.84,2.84,0,0,0,31.15.908l-5.7,5.7a.441.441,0,0,0-.128.31.481.481,0,0,0,.016.112L25,7.371l-.155-.155-.6.6V0H0V27.474H24.242V15.333L28.6,10.975l-.156-.156.34-.339a.5.5,0,0,0,.113.016.438.438,0,0,0,.31-.128l5.618-5.619A2.983,2.983,0,0,0,35.7,2.828a2.52,2.52,0,0,0-.8-1.823m-11.53,15.2V26.6H.877V.876H23.365V8.692l-4.9,4.9.351.351-.119.686H4.735a.439.439,0,1,0,0,.877H18.55l-.369,2.148,3.709-.642.339.338,1.136-1.136.439-.439Zm-4.046,1.007-.813.152-.058.011L18.6,16.5l.19.19.41-2.37,2.309,2.31-2.369.409Zm2.909-1.111L19.71,13.588l5.132-5.132,2.518,2.518Zm5.752-5.441L25.152,7.836l.29-.291,2.829,2.829Zm6.233-6.544L28.9,9.437,26.378,6.919,31.77,1.528l0,0A1.966,1.966,0,0,1,33,1a1.759,1.759,0,0,1,1.24.588l.022.025a1.681,1.681,0,0,1,.558,1.2,2.106,2.106,0,0,1-.6,1.313" transform="translate(0 0)"/><path class="a" d="M29.029,5.595a.385.385,0,0,0,.545,0l4.044-4.043a.386.386,0,0,0,0-.545L33.612,1a.383.383,0,0,0-.545,0L29.024,5.044a.385.385,0,0,0,0,.545Z" transform="translate(-3.598 -0.11)"/></g></g></svg>