<svg xmlns="http://www.w3.org/2000/svg" xmlns:xlink="http://www.w3.org/1999/xlink" width="27.16" height="33.001" viewBox="0 0 27.16 33.001"><defs><style>.a{fill:#395349;}.b{clip-path:url(#a);}</style><clipPath id="a"><rect class="a" width="27.16" height="33.001"/></clipPath></defs><g transform="translate(0 0)"><g class="b" transform="translate(0 0)"><path class="a" d="M19.85,32.832h0a.613.613,0,0,0,.422-.169l6.594-6.216A.615.615,0,0,0,27.056,26a.718.718,0,0,0,.105-.371V2.6a2.605,2.605,0,0,0-2.6-2.6H2.6A2.605,2.605,0,0,0,0,2.6V30.4A2.605,2.605,0,0,0,2.6,33H19.388a.718.718,0,0,0,.462-.17m.618-2.041V28.4a1.789,1.789,0,0,1,1.786-1.788H24.9Zm-1.8.767H2.6A1.159,1.159,0,0,1,1.445,30.4V2.6A1.159,1.159,0,0,1,2.6,1.444H24.558A1.159,1.159,0,0,1,25.716,2.6V24.909H22.343a3.68,3.68,0,0,0-3.677,3.676Z" transform="translate(0 0)"/><path class="a" d="M5.426,9.328H21.338a.724.724,0,0,0,.723-.723V7.31a.722.722,0,0,0-.723-.722H5.426A.721.721,0,0,0,4.7,7.31V8.6a.723.723,0,0,0,.722.723m.145-1.873H21.194V8.461H5.571Z" transform="translate(0.198 0.277)"/><path class="a" d="M5.426,13.674H21.338a.724.724,0,0,0,.723-.723V11.656a.723.723,0,0,0-.723-.722H5.426a.722.722,0,0,0-.722.722V12.95a.723.723,0,0,0,.722.723M5.571,11.8H21.194v1.006H5.571Z" transform="translate(0.198 0.46)"/><path class="a" d="M22.061,17.3V16a.724.724,0,0,0-.723-.723H5.426A.723.723,0,0,0,4.7,16V17.3a.722.722,0,0,0,.722.722H21.338a.723.723,0,0,0,.723-.722m-.867-.145H5.571V16.147H21.194Z" transform="translate(0.198 0.643)"/></g></g></svg>