<svg xmlns="http://www.w3.org/2000/svg" xmlns:xlink="http://www.w3.org/1999/xlink" width="35.205" height="26.426" viewBox="0 0 35.205 26.426"><defs><style>.a{fill:#395349;}.b{clip-path:url(#a);}</style><clipPath id="a"><rect class="a" width="35.205" height="26.426"/></clipPath></defs><g transform="translate(0 0)"><g class="b" transform="translate(0 0.001)"><path class="a" d="M16.675,4.8,13.841.388A.845.845,0,0,0,13.13,0H.846A.846.846,0,0,0,0,.846V25.58a.846.846,0,0,0,.846.846H30.413a.846.846,0,0,0,.846-.846V15.021A5.919,5.919,0,1,0,25.611,4.8ZM33.85,9.444a4.57,4.57,0,1,1-4.57-4.569,4.574,4.574,0,0,1,4.57,4.569M1.694,24.732V1.694H12.666L15.5,6.105a.848.848,0,0,0,.713.39h7.936a5.915,5.915,0,0,0,5.131,8.874c.1,0,.191-.01.288-.015v9.379Z" transform="translate(0 -0.001)"/><path class="a" d="M26.054,10.177l-.726-.846a.508.508,0,0,0-.77.662l1.061,1.238a.514.514,0,0,0,.352.177H26a.511.511,0,0,0,.339-.128l3.98-3.539a.507.507,0,1,0-.674-.758Z" transform="translate(2.077 0.582)"/></g></g></svg>