<svg xmlns="http://www.w3.org/2000/svg" xmlns:xlink="http://www.w3.org/1999/xlink" width="18.793" height="28.584" viewBox="0 0 18.793 28.584"><defs><style>.a{fill:#395349;}.b{clip-path:url(#a);}</style><clipPath id="a"><rect class="a" width="18.793" height="28.584" transform="translate(0 0)"/></clipPath></defs><g transform="translate(0 0)"><g class="b"><path class="a" d="M1.2,28.356l2.7-2.612a.616.616,0,0,0,.139-.14.574.574,0,0,0,.168-.338L7.835,17.2l2.941,1.322a.744.744,0,0,0,.477.063l.028-.006.016,0a.426.426,0,0,0,.313-.247q2.181-4.849,4.362-9.7l.953.428a.744.744,0,0,0,.477.063l.028-.006.015,0a.428.428,0,0,0,.314-.247q.5-1.112,1-2.223a.627.627,0,0,0-.408-.753L5.426.074a.625.625,0,0,0-.834.194q-.5,1.113-1,2.224A.626.626,0,0,0,4,3.245l.953.428-4.361,9.7A.627.627,0,0,0,1,14.126l2.941,1.322Q2.465,18.731.988,22.016a10,10,0,0,0-.827,2.035A25.537,25.537,0,0,0,0,27.818a.688.688,0,0,0,1.2.538M5.621,1.3,17.3,6.553q-.288.638-.573,1.276L5.048,2.577,5.621,1.3M2.048,13.458Q4.122,8.846,6.2,4.232l7.424,3.337,1.111.5L10.581,17.3,2.048,13.458M1.5,24.432c.05-.407-.046-.042.126-.513.2-.549.485-1.08.726-1.613q1.416-3.15,2.832-6.3l1.408.633L2.921,24.808,1.388,26.289c.013-.624.039-1.248.113-1.857"/></g></g></svg>