<svg xmlns="http://www.w3.org/2000/svg" xmlns:xlink="http://www.w3.org/1999/xlink" width="27.784" height="23.332" viewBox="0 0 27.784 23.332"><defs><style>.a{fill:#395349;}.b{clip-path:url(#a);}</style><clipPath id="a"><rect class="a" width="27.784" height="23.332" transform="translate(0 0)"/></clipPath></defs><g transform="translate(0 0)"><g class="b"><path class="a" d="M17.6,0H10.188A3.474,3.474,0,0,0,6.719,3.47v.8H2.744A2.747,2.747,0,0,0,0,7.016V20.588a2.748,2.748,0,0,0,2.744,2.745h22.3a2.748,2.748,0,0,0,2.744-2.745V7.016A2.747,2.747,0,0,0,25.04,4.272H21.065v-.8A3.474,3.474,0,0,0,17.6,0M11.25,22.132h-.785V5.116h.785Zm4.72,0H11.815V5.116H15.97Zm1.348,0h-.785V5.117h.785Zm.439-17.86h-7.73v-.8a.161.161,0,0,1,.161-.161H17.6a.161.161,0,0,1,.161.161ZM25.04,5.4a1.619,1.619,0,0,1,1.617,1.617V20.588a1.619,1.619,0,0,1-1.617,1.618H17.881V5.4h.439a.564.564,0,0,0,.564-.564V3.47A1.29,1.29,0,0,0,17.6,2.182H10.188A1.29,1.29,0,0,0,8.9,3.47V4.835a.564.564,0,0,0,.563.564H9.9V22.206H2.744a1.62,1.62,0,0,1-1.618-1.618V7.016A1.62,1.62,0,0,1,2.744,5.4H7.283a.563.563,0,0,0,.563-.564V3.47a2.344,2.344,0,0,1,2.342-2.342H17.6A2.344,2.344,0,0,1,19.938,3.47V4.835A.563.563,0,0,0,20.5,5.4Z"/></g></g></svg>