<svg xmlns="http://www.w3.org/2000/svg" xmlns:xlink="http://www.w3.org/1999/xlink" width="40.391" height="40.988" viewBox="0 0 40.391 40.988"><defs><style>.a,.c{fill:#395349;}.b{clip-path:url(#a);}.c{fill-rule:evenodd;}</style><clipPath id="a"><rect class="a" width="40.391" height="40.988" transform="translate(0 0)"/></clipPath></defs><g transform="translate(0 -0.002)"><g class="b" transform="translate(0 0.002)"><path class="c" d="M283.118,386.187l-14.071-1.62,6.9,8.367,3.395-3.1-.544,1.721,1.981,1.173-1.231-3.166-7.272-3.544.025-.035,7.977,2.733m-4.894-5.285,3.792.373a8.911,8.911,0,1,0-5.312,10.09l-2.4-2.926a5.4,5.4,0,1,1,3.615-8.122,5.686,5.686,0,0,1,.308.585m-13.51-6.36a12.122,12.122,0,0,1,20.612,7.059l5.092.5-5.7,5.4L284,396.636l-4.914-2.449-.05.051-8.582,8.584-8.585-8.584a12.175,12.175,0,0,1,0-17.167" transform="translate(-250.24 -361.834)"/><path class="c" d="M12.512,16.04a14.934,14.934,0,0,1,15.368,0V9.717c-3.7-4.386-11.979-4.178-15.368,0ZM8.9,4.8l-.069.009v.02Zm-.069,6.826a.878.878,0,0,1-.056,1.482,1.28,1.28,0,0,1,.38.286l.3,2.855a1.8,1.8,0,0,1-2.255,0L7.5,13.4a1.265,1.265,0,0,1,.378-.287.881.881,0,0,1-.049-1.486V10.608h0V5.253h0V4.37a.5.5,0,0,1,.435-.494l4-.507L20.2,0,40.391,8.577l-11.168,2.9V9.53l-.153-.416a9.051,9.051,0,0,0-1.25-1.222,12.257,12.257,0,0,0-7.78-2.511,12.086,12.086,0,0,0-7.593,2.59,8.6,8.6,0,0,0-1.133,1.156l-.144.4v1.943l-2.344-.607ZM0,8.577l6.833-2.9v4.673Z" transform="translate(0 -0.001)"/></g></g></svg>