<svg xmlns="http://www.w3.org/2000/svg" xmlns:xlink="http://www.w3.org/1999/xlink" width="32.93" height="31.489" viewBox="0 0 32.93 31.489"><defs><style>.a{fill:#395349;}.b{clip-path:url(#a);}</style><clipPath id="a"><rect class="a" width="32.93" height="31.489"/></clipPath></defs><g transform="translate(0 0)"><g class="b" transform="translate(0 0)"><path class="a" d="M.679,13.386A2.343,2.343,0,0,0,0,15.01V28.839a2.851,2.851,0,0,0,3.051,2.587h.414l.075.063.074-.063h25.7l.075.063.075-.063h.414a2.851,2.851,0,0,0,3.051-2.587V15.01a2.344,2.344,0,0,0-.68-1.624.636.636,0,0,0-.236-.5L17.039.194a.947.947,0,0,0-1.148,0L.916,12.89a.634.634,0,0,0-.237.5m4.292,16.89,7.652-6.487,3.269,2.77a.92.92,0,0,0,1.148,0l3.269-2.77,7.652,6.487Zm2.455-12.45V13H25.776v4.6l-9.311,7.894ZM31.574,15.01V28.839a1.524,1.524,0,0,1-1.355,1.409l-8.765-7.431,9.943-8.43a1.242,1.242,0,0,1,.177.624M16.465,1.653,30.293,13.377l-3.543,3v-3.8a.453.453,0,0,0-.487-.413H6.94a.454.454,0,0,0-.488.413v4.026L2.637,13.377ZM1.356,15.01a1.241,1.241,0,0,1,.176-.624l9.943,8.43L2.71,30.247a1.524,1.524,0,0,1-1.355-1.409Z" transform="translate(0 0)"/></g></g></svg>