<svg xmlns="http://www.w3.org/2000/svg" xmlns:xlink="http://www.w3.org/1999/xlink" width="31" height="28.704" viewBox="0 0 31 28.704"><defs><style>.a{fill:#395349;}.b{clip-path:url(#a);}</style><clipPath id="a"><rect class="a" width="31" height="28.704"/></clipPath></defs><g transform="translate(0 0)"><g class="b" transform="translate(0 0)"><path class="a" d="M32.635,5.312a.526.526,0,0,0-.094-.144l-.032-.033a.815.815,0,0,0-.8-.235.836.836,0,0,0-.6.6,1.389,1.389,0,0,1-.4.67,1.4,1.4,0,0,1-1.426.3,1.57,1.57,0,0,1-1-1.327.292.292,0,0,1,0-.1,1.537,1.537,0,0,1,1.2-1.283A.831.831,0,0,0,30.13,3.2a.811.811,0,0,0-.178-.806l-2-2.143a.821.821,0,0,0-.415-.239A.51.51,0,0,0,27.412,0a.828.828,0,0,0-.536.213l-1.9,1.736a2.407,2.407,0,0,0-.457-.7,2.444,2.444,0,0,0-3.4-.146A2.426,2.426,0,0,0,21.66,5L19.779,6.757a.574.574,0,0,0-.093.11.826.826,0,0,0-.167.412.513.513,0,0,0,0,.127.815.815,0,0,0,.206.432L21.7,10a.807.807,0,0,0,.789.244.833.833,0,0,0,.606-.594A1.535,1.535,0,0,1,24.47,8.56a.291.291,0,0,1,.1,0,1.573,1.573,0,0,1,1.245,1.1A1.408,1.408,0,0,1,24.7,11.409a.833.833,0,0,0-.648.551.816.816,0,0,0,.17.815l.029.032a.51.51,0,0,0,.137.106l1.89,2.024a.821.821,0,0,0,.5.256.523.523,0,0,0,.062,0,.5.5,0,0,0,.07,0,.806.806,0,0,0,.268-.09.787.787,0,0,0,.169-.117L29.419,13.1a.514.514,0,0,0,.069-.077.836.836,0,0,0,.123-.725.8.8,0,0,0-.486-.522,1.408,1.408,0,0,1-.4-2.4.5.5,0,0,0,.037-.035,1.447,1.447,0,0,1,1.025-.424,1.409,1.409,0,0,1,1.333,1.014.8.8,0,0,0,.481.527.836.836,0,0,0,.732-.066.484.484,0,0,0,.082-.062l2.043-1.906a.828.828,0,0,0,.239-.412.511.511,0,0,0,.013-.136A.823.823,0,0,0,34.5,7.36ZM31.99,9.345a2.426,2.426,0,0,0-3.932-.728,2.424,2.424,0,0,0-.223,3.483,2.436,2.436,0,0,0,.631.5l-1.608,1.465-1.623-1.739A2.425,2.425,0,0,0,26.8,9.411a2.59,2.59,0,0,0-2-1.838,1.3,1.3,0,0,0-.472-.023,2.584,2.584,0,0,0-2.109,1.514L20.65,7.338l1.867-1.743a.8.8,0,0,0,.188-.261.822.822,0,0,0,.063-.663.8.8,0,0,0-.479-.5A1.378,1.378,0,0,1,21.75,3.8,1.4,1.4,0,0,1,21.8,1.85a1.415,1.415,0,0,1,1.964.092,1.372,1.372,0,0,1,.321.565.8.8,0,0,0,.462.519.824.824,0,0,0,.666-.009.794.794,0,0,0,.273-.164l1.891-1.723L28.975,2.84a2.582,2.582,0,0,0-1.68,1.98,1.32,1.32,0,0,0-.017.472,2.591,2.591,0,0,0,1.671,2.141,2.424,2.424,0,0,0,2.457-.517,2.4,2.4,0,0,0,.57-.811l1.6,1.758Z" transform="translate(-3.714 0)"/><path class="a" d="M3.274,28.933a.824.824,0,0,0,.823.817h0l9.473-.056a.447.447,0,0,0,.074-.01.825.825,0,0,0,.323.066l2.939-.017a.431.431,0,0,0,.1-.011.824.824,0,0,0,.574-.451.8.8,0,0,0-.01-.721,1.539,1.539,0,0,1,.182-1.632.287.287,0,0,1,.071-.072,1.75,1.75,0,0,1,1-.342,1.412,1.412,0,0,1,1.409,1.4,1.376,1.376,0,0,1-.147.633.8.8,0,0,0,0,.715.834.834,0,0,0,.582.449.46.46,0,0,0,.1.01l2.791-.017a.822.822,0,0,0,.819-.828l-.017-2.918a.814.814,0,0,0-.823-.815.829.829,0,0,0-.453.134,1.408,1.408,0,0,1-2-.529,1.575,1.575,0,0,1,.169-1.65.277.277,0,0,1,.072-.072,1.751,1.751,0,0,1,1.006-.345,1.392,1.392,0,0,1,.747.216.849.849,0,0,0,1.029-.111.8.8,0,0,0,.234-.577l-.017-2.929a.826.826,0,0,0-.828-.818l-2.506.015a2.4,2.4,0,0,0,.13-.8A2.434,2.434,0,0,0,18.7,15.254a2.782,2.782,0,0,0-1.567.513,2.465,2.465,0,0,0,.206-.324,2.592,2.592,0,0,0-.251-2.7,1.336,1.336,0,0,0-.335-.333,2.651,2.651,0,0,0-2.381-.372l-.015-2.506a.826.826,0,0,0-.828-.819l-2.512.015a2.6,2.6,0,0,0-.394-2.4A1.321,1.321,0,0,0,10.286,6,2.791,2.791,0,0,0,8.726,5.5h0a2.425,2.425,0,0,0-2.28,3.26l-2.514.015a.822.822,0,0,0-.818.828l.018,2.939a.515.515,0,0,0,.011.1.823.823,0,0,0,.8.655.814.814,0,0,0,.37-.089,1.567,1.567,0,0,1,1.632.181.29.29,0,0,1,.073.071,1.573,1.573,0,0,1,.185,1.65,1.41,1.41,0,0,1-1.253.76,1.39,1.39,0,0,1-.627-.148.8.8,0,0,0-.356-.084.824.824,0,0,0-.8.666.611.611,0,0,0-.009.1L3.169,19.2a.488.488,0,0,0,.052.215c0,.012,0,.024,0,.037l.014,2.4a2.6,2.6,0,0,0-2.4.394,1.281,1.281,0,0,0-.33.334,2.588,2.588,0,0,0-.222,2.7A2.425,2.425,0,0,0,2.44,26.567a2.452,2.452,0,0,0,.819-.149Zm14.139-9.818a.813.813,0,0,0,.03-.8,1.534,1.534,0,0,1,.181-1.63.312.312,0,0,1,.072-.074,1.75,1.75,0,0,1,1-.342,1.413,1.413,0,0,1,1.409,1.4,1.394,1.394,0,0,1-.147.634.8.8,0,0,0,.036.787.824.824,0,0,0,.708.394l2.607-.016.014,2.393a2.625,2.625,0,0,0-2.575.315,1.3,1.3,0,0,0-.334.337,2.593,2.593,0,0,0-.227,2.7,2.426,2.426,0,0,0,3.162,1.069l.015,2.392-2.235.014a2.426,2.426,0,0,0-2.3-3.2,2.78,2.78,0,0,0-1.581.523,1.31,1.31,0,0,0-.333.335,2.606,2.606,0,0,0-.376,2.373l-2.381.014-.015-2.617a.825.825,0,0,0-.82-.82.806.806,0,0,0-.376.093,1.387,1.387,0,0,1-.654.161,1.408,1.408,0,0,1-1.245-.75,1.571,1.571,0,0,1,.167-1.648.284.284,0,0,1,.07-.072,1.572,1.572,0,0,1,1.642-.2.834.834,0,0,0,.954-.153.822.822,0,0,0,.239-.585l-.016-2.618,2.608-.015a.817.817,0,0,0,.7-.4m-1-.621-2,.012L14.4,16.622a2.418,2.418,0,0,0,2.342-.436,2.584,2.584,0,0,0-.328,2.308M4.964,16.888a2.422,2.422,0,0,0,2.141-1.311,2.588,2.588,0,0,0-.252-2.7,1.333,1.333,0,0,0-.334-.333,2.648,2.648,0,0,0-2.373-.375L4.132,9.789l2.617-.015a.825.825,0,0,0,.7-.4.8.8,0,0,0,.023-.793,1.405,1.405,0,0,1,.248-1.647,1.4,1.4,0,0,1,1-.415h0a1.753,1.753,0,0,1,.985.33.288.288,0,0,1,.073.07A1.573,1.573,0,0,1,9.979,8.56a.821.821,0,0,0,.74,1.19l2.617-.015.016,2.607a.82.82,0,0,0,1.193.729,1.57,1.57,0,0,1,1.631.181.29.29,0,0,1,.072.072,1.57,1.57,0,0,1,.185,1.649,1.41,1.41,0,0,1-1.251.761,1.382,1.382,0,0,1-.622-.145.821.821,0,0,0-1.184.743l.015,2.377a.866.866,0,0,0-.138.149c-.019.027-.035.054-.051.081l-2.5.015a.3.3,0,0,1-.27-.154.322.322,0,0,1,.012-.327,2.052,2.052,0,0,0-.143-2.32.832.832,0,0,0-.2-.2,2.263,2.263,0,0,0-1.279-.42A1.916,1.916,0,0,0,7.2,18.486a.325.325,0,0,1,.015.33.306.306,0,0,1-.27.161l-2.761.016-.013-2.235a2.419,2.419,0,0,0,.791.129m-2.53,8.66A1.428,1.428,0,0,1,1.181,24.8a1.571,1.571,0,0,1,.167-1.653.281.281,0,0,1,.069-.07,1.572,1.572,0,0,1,1.644-.2.811.811,0,0,0,.8-.034.819.819,0,0,0,.391-.705l-.013-2.131L6.954,20A1.329,1.329,0,0,0,8.112,19.3a1.344,1.344,0,0,0-.053-1.366A.9.9,0,0,1,8.18,16.82a1.013,1.013,0,0,1,1.308-.045A1.049,1.049,0,0,1,9.58,17.93,1.327,1.327,0,0,0,10.7,19.974l2.389-.015L13.1,21.85a2.647,2.647,0,0,0-2.4.393,1.291,1.291,0,0,0-.33.334,2.593,2.593,0,0,0-.224,2.7,2.424,2.424,0,0,0,2.978,1.143l.013,2.185a.556.556,0,0,0-.057.074l-8.794.053-.015-2.617a.824.824,0,0,0-.4-.705.8.8,0,0,0-.792-.023,1.385,1.385,0,0,1-.646.162" transform="translate(0 -1.046)"/></g></g></svg>