<svg xmlns="http://www.w3.org/2000/svg" xmlns:xlink="http://www.w3.org/1999/xlink" width="24.374" height="37.833" viewBox="0 0 24.374 37.833"><defs><style>.a{fill:#395349;}.b{clip-path:url(#a);}</style><clipPath id="a"><rect class="a" width="24.374" height="37.833"/></clipPath></defs><g transform="translate(0 0)"><g class="b" transform="translate(0 0)"><path class="a" d="M24.374,35.624c0-.158.1-3.914-2.264-6.08a.655.655,0,0,0-.836-.038,4.069,4.069,0,0,1-4.944.007.651.651,0,0,0-.838.013,5.786,5.786,0,0,0-.718.809,8.066,8.066,0,0,0-1.318-1.568.652.652,0,0,0-.835-.037c-.157.12-3.88,2.888-7.421,0a.651.651,0,0,0-.839.013A11.711,11.711,0,0,0,.981,37.223a.653.653,0,0,0,.651.661l14.325,0a.651.651,0,0,0,.651-.63c0-.055.011-.425-.026-1l7.142,0a.65.65,0,0,0,.65-.63M2.31,36.581A10.885,10.885,0,0,1,4.857,30.1c3.383,2.357,6.834.721,8.076-.026,1.92,2.063,2.29,5.178,2.359,6.5Zm14.127-1.628a13.036,13.036,0,0,0-.963-3.334,6.389,6.389,0,0,1,.524-.74,5.293,5.293,0,0,0,5.582-.014,7.317,7.317,0,0,1,1.47,4.087Z" transform="translate(-0.002 -0.05)"/><path class="a" d="M17.65,12.57H12.573v1.6a1.45,1.45,0,0,0,1.448,1.449h4.515l1.283,1.475a.49.49,0,0,0,.369.168.478.478,0,0,0,.188-.038.486.486,0,0,0,.3-.488l-.088-1.117h2.32a1.45,1.45,0,0,0,1.448-1.449V8.443A1.449,1.449,0,0,0,22.907,7h-3.16v3.478a2.1,2.1,0,0,1-2.1,2.1M19.863,10.5V7.972h3.044a.472.472,0,0,1,.472.471v5.725a.472.472,0,0,1-.472.472H20.059a.489.489,0,0,0-.487.527l.014.168-.458-.526a.488.488,0,0,0-.368-.169H14.021a.472.472,0,0,1-.472-.472V12.644h4.172A2.144,2.144,0,0,0,19.863,10.5" transform="translate(-0.022 -0.012)"/><path class="a" d="M0,10.461a2.1,2.1,0,0,0,2.1,2.1H7.73l-.158,2.02a.562.562,0,0,0,.984.413l2.116-2.434h6.954a2.1,2.1,0,0,0,2.1-2.1V2.1a2.1,2.1,0,0,0-2.1-2.1H2.1A2.1,2.1,0,0,0,0,2.1ZM1.125,2.1A.973.973,0,0,1,2.1,1.124H17.627A.974.974,0,0,1,18.6,2.1v8.363a.973.973,0,0,1-.972.972h-7.21a.562.562,0,0,0-.424.193L8.826,12.966l.073-.927a.561.561,0,0,0-.56-.606H2.1a.973.973,0,0,1-.971-.972Z" transform="translate(0 0)"/><path class="a" d="M18.721,29.479h0a4.479,4.479,0,1,0-3.167-7.645,4.5,4.5,0,0,0-.658.842c.02-.2.031-.4.031-.61A6.13,6.13,0,1,0,8.8,28.2h0a6.131,6.131,0,0,0,5.448-3.331c0,.046-.007.091-.007.136a4.486,4.486,0,0,0,4.48,4.477m-2.246-6.724a3.175,3.175,0,1,1,2.247,5.422h0a3.176,3.176,0,0,1-2.246-5.422m-4.265,2.724A4.788,4.788,0,0,1,8.8,26.895h0a4.833,4.833,0,1,1,3.411-1.416" transform="translate(-0.005 -0.028)"/></g></g></svg>