<svg xmlns="http://www.w3.org/2000/svg" xmlns:xlink="http://www.w3.org/1999/xlink" width="16.474" height="21.209" viewBox="0 0 16.474 21.209"><defs><style>.a{fill:#5d746b;}.b{clip-path:url(#a);}</style><clipPath id="a"><rect class="a" width="16.474" height="21.209"/></clipPath></defs><g transform="translate(0 0)"><g class="b" transform="translate(0 0)"><path class="a" d="M2.627,21.209H13.847a2.631,2.631,0,0,0,2.628-2.628V11.4a2.629,2.629,0,0,0-2.283-2.6V5.954a5.955,5.955,0,0,0-11.909,0v2.84A2.63,2.63,0,0,0,0,11.4v7.185a2.631,2.631,0,0,0,2.627,2.628M.982,11.4A1.648,1.648,0,0,1,2.627,9.75H13.847A1.648,1.648,0,0,1,15.493,11.4v7.185a1.648,1.648,0,0,1-1.646,1.646H2.627A1.648,1.648,0,0,1,.982,18.581ZM8.237.981A4.979,4.979,0,0,1,13.21,5.954V8.768h-.785V5.954a4.188,4.188,0,0,0-8.376,0V8.768H3.264V5.954A4.978,4.978,0,0,1,8.237.981m3.206,7.787H5.031V5.954a3.206,3.206,0,0,1,6.413,0Z" transform="translate(0 0)"/><path class="a" d="M11.31,24.928h1.959a.392.392,0,0,0,.392-.392V19.993a.392.392,0,0,0-.392-.392H11.31a.393.393,0,0,0-.393.392v4.542a.393.393,0,0,0,.393.392m.392-4.541h1.174v3.756H11.7Z" transform="translate(-4.052 -7.276)"/></g></g></svg>