<svg xmlns="http://www.w3.org/2000/svg" xmlns:xlink="http://www.w3.org/1999/xlink" width="29.582" height="32.239" viewBox="0 0 29.582 32.239"><defs><style>.a{fill:#395349;}.b{clip-path:url(#a);}</style><clipPath id="a"><rect class="a" width="29.582" height="32.239"/></clipPath></defs><g transform="translate(0 0)"><g class="b" transform="translate(0 0)"><path class="a" d="M26.326,4.981h-.939a.572.572,0,0,0-.229.049V1.889a1.89,1.89,0,0,0-3.78,0v3.1a.619.619,0,0,0-.1-.011H8.309A.538.538,0,0,0,8.166,5V1.889a1.89,1.89,0,0,0-3.78,0V5.017A.561.561,0,0,0,4.2,4.981H3.256A3.261,3.261,0,0,0,0,8.238V28.983a3.26,3.26,0,0,0,3.256,3.256h23.07a3.26,3.26,0,0,0,3.256-3.256V8.238a3.261,3.261,0,0,0-3.256-3.257M22.437,1.889a.831.831,0,0,1,1.662,0V7.576a.831.831,0,1,1-1.662,0Zm-16.991,0a.831.831,0,0,1,1.662,0V7.576a.831.831,0,1,1-1.662,0ZM28.434,28.983a2.11,2.11,0,0,1-2.108,2.108H3.256a2.11,2.11,0,0,1-2.108-2.108V8.238A2.111,2.111,0,0,1,3.256,6.13h.365V7.255a2.631,2.631,0,0,0,5.261,0V6.13H20.7V7.255a2.631,2.631,0,0,0,5.261,0V6.13h.365a2.111,2.111,0,0,1,2.108,2.108Z" transform="translate(0 0)"/><path class="a" d="M27.25,16H3.4a.575.575,0,0,0-.575.574V30.667A1.978,1.978,0,0,0,4.8,32.642H25.848a1.979,1.979,0,0,0,1.976-1.975V16.574A.575.575,0,0,0,27.25,16m-.575,14.667a.828.828,0,0,1-.827.826H4.8a.828.828,0,0,1-.827-.826V17.149h22.7Z" transform="translate(-0.486 -2.749)"/></g></g></svg>