<svg xmlns="http://www.w3.org/2000/svg" xmlns:xlink="http://www.w3.org/1999/xlink" width="29.266" height="32.528" viewBox="0 0 29.266 32.528"><defs><style>.a{fill:#fff;}.b{clip-path:url(#a);}</style><clipPath id="a"><rect class="a" width="29.266" height="32.528" transform="translate(0 0.001)"/></clipPath></defs><g transform="translate(0 -0.001)"><g class="b"><path class="a" d="M25.313,32.528a.781.781,0,0,0,.492-.174l3.172-2.578a.778.778,0,0,0,.114-1.1L21.123,18.87A11.76,11.76,0,0,0,4.346,2.627a11.758,11.758,0,0,0-1.713,16.54,11.677,11.677,0,0,0,7.916,4.282,11.864,11.864,0,0,0,1.232.064,11.649,11.649,0,0,0,4.945-1.1l7.981,9.825a.777.777,0,0,0,.606.288M10.709,21.9a10.2,10.2,0,1,1,7.48-2.228,10.136,10.136,0,0,1-7.48,2.228m8.464-1.017a12.01,12.01,0,0,0,.908-.818l7.306,8.995L25.426,30.65l-7.314-9a12.091,12.091,0,0,0,1.061-.767"/></g></g></svg>