<svg xmlns="http://www.w3.org/2000/svg" xmlns:xlink="http://www.w3.org/1999/xlink" width="44.264" height="25.727" viewBox="0 0 44.264 25.727"><defs><style>.a{fill:#395349;}.b{clip-path:url(#a);}</style><clipPath id="a"><rect class="a" width="44.264" height="25.727" transform="translate(0 0)"/></clipPath></defs><g transform="translate(0 0)"><g class="b"><path class="a" d="M6.068,13.9a1.788,1.788,0,0,0-1.051,2.832L4.27,21.161a.652.652,0,0,0,.643.761H7.972a.652.652,0,0,0,.646-.741l-.637-4.614a1.783,1.783,0,0,0-.608-2.439V11.734L11.4,13.482V23.489a2.24,2.24,0,0,0,2.236,2.238H32.033a2.24,2.24,0,0,0,2.237-2.238V12.871l9.6-4.165a.653.653,0,0,0-.049-1.216L21.985.035a.646.646,0,0,0-.442.007C14.066,2.873,1.788,7.387.647,7.455A.652.652,0,0,0,.393,8.706l5.675,2.462Zm-.383,6.714.672-3.982a.652.652,0,0,0-.225-.609.486.486,0,1,1,.676-.054.65.65,0,0,0-.154.517l.57,4.128Zm27.281,2.871a.933.933,0,0,1-.933.933H13.64a.933.933,0,0,1-.932-.933V14.048l9.165,3.977a.651.651,0,0,0,.519,0l10.574-4.588ZM2.632,8.255c4.721-1.472,16.059-5.739,19.153-6.91L41.806,8.18,22.132,16.715,9.14,11.079,20.11,9.631a3.95,3.95,0,0,0,2.022.476c1.512,0,2.653-.6,2.653-1.4s-1.141-1.4-2.653-1.4c-1.305,0-2.331.448-2.588,1.084L6.815,10.07Zm17.5.452c0-.3.779-.748,2-.748s2,.443,2,.748-.779.748-2,.748-2-.443-2-.748"/></g></g></svg>