<svg xmlns="http://www.w3.org/2000/svg" xmlns:xlink="http://www.w3.org/1999/xlink" width="25.837" height="27.61" viewBox="0 0 25.837 27.61"><defs><style>.a{fill:#395349;}.b{clip-path:url(#a);}</style><clipPath id="a"><rect class="a" width="25.837" height="27.61" transform="translate(0 0)"/></clipPath></defs><g transform="translate(0 0)"><g class="b"><path class="a" d="M2.709,11.942a4.844,4.844,0,0,0,3.427,8.27h0A4.85,4.85,0,0,0,10.659,17.1H15.18A4.853,4.853,0,0,0,19.7,20.212h0a4.846,4.846,0,1,0-2.21-9.157,6.373,6.373,0,0,0-1.021-1.211.657.657,0,0,0-.844-.038c-.027.022-2.7,2.008-5.24.191L9.045,7.92A4.839,4.839,0,0,0,12.8,9.7h0a4.857,4.857,0,0,0,4.848-4.852A4.85,4.85,0,1,0,8.469,7.029l-1.617-2.5A1.651,1.651,0,0,0,4.079,6.321l2.752,4.255a4.759,4.759,0,0,0-4.122,1.366M10.3,2.35a3.535,3.535,0,1,1,5,5,3.535,3.535,0,1,1-5-5m6.9,10.514a3.539,3.539,0,1,1,2.5,6.043h0a3.539,3.539,0,0,1-2.5-6.043M4.975,5.742a.585.585,0,0,1,.173-.809.6.6,0,0,1,.808.174L9.118,10l.813,1.258.052.05a5.6,5.6,0,0,0,.685.357,5.337,5.337,0,0,0,.593.214,6.157,6.157,0,0,0,4.671-.708,5.164,5.164,0,0,1,.484.647c-.047.043-.1.083-.14.128a4.815,4.815,0,0,0-1.421,3.426c0,.141.01.278.022.416H10.961c.012-.139.021-.278.021-.42a4.858,4.858,0,0,0-2.538-4.258L8.374,11Zm4.7,9.623a3.546,3.546,0,0,1-3.54,3.542h0a3.541,3.541,0,1,1,3.541-3.542"/><path class="a" d="M.188,27.416a.652.652,0,0,0,.464.194l10.966,0a.653.653,0,0,0,.652-.631c.006-.172.11-4.258-2.461-6.614a.655.655,0,0,0-.836-.037c-.117.088-2.878,2.135-5.492.007a.652.652,0,0,0-.839.013A9.131,9.131,0,0,0,0,26.949a.653.653,0,0,0,.188.467M3.144,21.7a5.742,5.742,0,0,0,6.139-.014A8.092,8.092,0,0,1,10.946,26.3l-9.61,0a8.071,8.071,0,0,1,1.808-4.6"/><path class="a" d="M22.538,20.326c-.116.088-2.877,2.135-5.491.007a.653.653,0,0,0-.84.013,9.134,9.134,0,0,0-2.642,6.6.654.654,0,0,0,.653.662l10.966,0a.652.652,0,0,0,.651-.631c.006-.173.11-4.259-2.461-6.614a.656.656,0,0,0-.836-.038M24.511,26.3l-9.61,0a8.074,8.074,0,0,1,1.809-4.6,5.74,5.74,0,0,0,6.138-.013A8.082,8.082,0,0,1,24.511,26.3"/></g></g></svg>